<?xml version="1.0" encoding="UTF-8"?>
<svg width="82px" height="53px" viewBox="0 0 82 53" version="1.1" xmlns="http://www.w3.org/2000/svg" xmlns:xlink="http://www.w3.org/1999/xlink">
    <!-- Generator: Sketch 51.3 (57544) - http://www.bohemiancoding.com/sketch -->
    <title>citi</title>
    <desc>Created with Sketch.</desc>
    <defs>
        <rect id="path-1" x="0" y="0" width="298" height="57"></rect>
    </defs>
    <g id="Page-1" stroke="none" stroke-width="1" fill="none" fill-rule="evenodd">
        <g id="citi" transform="translate(-106.000000, -1.000000)">
            <mask id="mask-2" fill="white">
                <use xlink:href="#path-1"></use>
            </mask>
            <g id="Mask"></g>
            <g mask="url(#mask-2)" id="Group">
                <g transform="translate(105.000000, 0.000000)">
                    <g transform="translate(43.685686, 28.498822) scale(-1, 1) rotate(-180.000000) translate(-43.685686, -28.498822) translate(0.158828, 0.265185)">
                        <g fill="#004685" fill-rule="nonzero" id="Shape">
                            <g transform="translate(0.039786, 1.278970)">
                                <path d="M25.8808345,11.7640157 L25.7302551,11.6181419 C23.365688,9.20887149 20.6293779,7.93600499 17.8107198,7.93600499 C11.9240063,7.93600499 7.65366861,12.3522165 7.65366861,18.4436238 C7.65366861,24.5256199 11.9240063,28.9488898 17.8107198,28.9488898 C20.6293779,28.9488898 23.365688,27.6689649 25.7302551,25.2502833 L25.8808345,25.1067623 L29.6664948,29.6853172 L29.5653242,29.807663 C26.4172736,33.5274447 22.6386718,35.3367503 17.9942384,35.3367503 C13.338041,35.3367503 9.07476171,33.7674307 6.00670641,30.9417141 C2.66572596,27.8783644 0.908182012,23.5586178 0.908182012,18.4436238 C0.908182012,13.3286298 2.66572596,8.99947201 6.00670641,5.93612232 C9.07476171,3.09393613 13.338041,1.53638045 17.9942384,1.53638045 C22.6386718,1.53638045 26.4172736,3.34803887 29.5653242,7.07017343 L29.6664948,7.18310798 L25.8808345,11.7640157"></path>
                            </g>
                        </g>
                        <polyline id="Shape" fill="#004685" fill-rule="nonzero" points="33.5297975 3.43979819 40.2164641 3.43979819 40.2164641 36.0872946 33.5297975 36.0872946 33.5297975 3.43979819"></polyline>
                        <g transform="translate(44.703260, 0.000000)" fill="#004685" fill-rule="nonzero" id="Shape">
                            <g transform="translate(0.535239, 1.125816)">
                                <path d="M21.1752283,9.41121256 C19.3894507,8.32421751 17.7307245,7.77601438 16.2390473,7.77601438 C14.0768212,7.77601438 13.0980551,8.9194767 13.0980551,11.4605041 L13.0980551,28.7841936 L19.9141258,28.7841936 L19.9141258,34.9297154 L13.0980551,34.9297154 L13.0980551,45.0891194 L6.54549833,41.5787371 L6.54549833,34.9297154 L0.889359587,34.9297154 L0.889359587,28.7841936 L6.54549833,28.7841936 L6.54549833,10.3570394 C6.54549833,5.33851032 9.5194415,1.90341774 13.9615338,1.81401122 C16.9754747,1.75519114 18.7918387,2.65396194 19.8929505,3.31274682 L19.9635346,3.35745008 L21.5704992,9.65355128 L21.1752283,9.41121256"></path>
                            </g>
                        </g>
                        <polyline id="Shape" fill="#004685" fill-rule="nonzero" points="71.94872 3.43979819 78.6447977 3.43979819 78.6447977 36.0872946 71.94872 36.0872946 71.94872 3.43979819"></polyline>
                        <g transform="translate(28.430544, 39.457200)" fill="#EE1C25" fill-rule="nonzero" id="Shape">
                            <path d="M54.1144722,2.35280314 C48.0042425,11.0064131 37.8589553,16.1684632 27.5372079,16.1684632 C17.2178134,16.1684632 7.07017343,11.0064131 0.971707697,2.35280314 L0.656432076,1.90812335 L8.35009834,1.90812335 L8.43479925,1.99988267 C13.6697862,7.40662428 20.5070322,10.2629273 27.5372079,10.2629273 C34.5673837,10.2629273 41.399924,7.40662428 46.646675,1.99988267 L46.731376,1.90812335 L54.4203366,1.90812335 L54.1144722,2.35280314"></path>
                        </g>
                    </g>
                </g>
            </g>
        </g>
    </g>
</svg>